<?xml version="1.0" standalone="no"?><!DOCTYPE svg PUBLIC "-//W3C//DTD SVG 1.1//EN" "http://www.w3.org/Graphics/SVG/1.1/DTD/svg11.dtd"><svg t="1721410937185" class="icon" viewBox="0 0 1024 1024" version="1.1" xmlns="http://www.w3.org/2000/svg" p-id="6560" xmlns:xlink="http://www.w3.org/1999/xlink" width="128" height="128"><path d="M621 815.6c0-11.4-6.1-20.6-13.6-20.6H416.6c-7.5 0-13.6 9.2-13.6 20.6v82.5H266.8V960h490.4v-61.9H621v-82.5zM899.2 64.1H124.8c-32.1 0-58.1 27.7-58.1 61.8v577.4c0 34.1 26 61.9 58.1 61.9h774.5c32.1 0 58.1-27.7 58.1-61.9V125.9c-0.1-34.2-26.1-61.8-58.2-61.8z m0 618.5c0 11.4-8.7 20.6-19.4 20.6H144.1c-10.7 0-19.4-9.2-19.4-20.6V146.5c0-11.4 8.7-20.6 19.4-20.6h735.7c10.7 0 19.4 9.2 19.4 20.6v536.1z m-198.3-39.4h104.7V318.4H700.9v324.8z m-167.6 0H638V218.4H533.3v424.8z m-314.3 0h104.7V518.3H219v124.9z m146.7 0h104.8V418.3H365.7v224.9z m0 0" fill="#5389FA" p-id="6561"></path></svg>